<svg width="43" height="36" viewBox="0 0 43 36" fill="none" xmlns="http://www.w3.org/2000/svg">
<path d="M40.1336 26.2091V13.0475L22.6375 22.5677C21.986 22.9239 21.2755 23.0953 20.506 23.0819C19.7369 23.0688 19.0224 22.8841 18.3625 22.5279L1.99463 13.5029C1.6649 13.305 1.38465 13.0402 1.15388 12.7085C0.922712 12.3767 0.807129 12.0272 0.807129 11.6599C0.807129 11.2938 0.923899 10.9464 1.15744 10.6179C1.39098 10.2889 1.67005 10.0103 1.99463 9.78187L18.3602 0.788332C18.7006 0.612978 19.0556 0.478197 19.4253 0.383989C19.7951 0.28978 20.1559 0.242676 20.5078 0.242676C20.8596 0.242676 21.2203 0.292155 21.5896 0.391113C21.9585 0.490072 22.3078 0.631782 22.6375 0.81624L41.4594 11.0091C41.7666 11.1881 42.0314 11.4517 42.2538 11.8C42.4763 12.148 42.5875 12.5177 42.5875 12.9091V26.2091C42.5875 26.5567 42.4658 26.8514 42.2224 27.0932C41.9789 27.3351 41.691 27.456 41.3585 27.456C41.0264 27.456 40.7392 27.3351 40.4969 27.0932C40.2547 26.8514 40.1336 26.5567 40.1336 26.2091ZM18.3625 34.5021L7.87275 28.7623C7.18677 28.3534 6.64587 27.8174 6.25004 27.1544C5.8542 26.4914 5.65629 25.7541 5.65629 24.9427V17.8177L18.3625 24.7444C18.9994 25.1271 19.7048 25.3185 20.4787 25.3185C21.2529 25.3185 21.9725 25.1271 22.6375 24.7444L35.3438 17.8177V24.9534C35.3438 25.7775 35.1459 26.5161 34.75 27.1692C34.3542 27.8224 33.8133 28.3534 33.1273 28.7623L22.6375 34.5021C22.3031 34.713 21.9488 34.8581 21.5747 34.9373C21.2007 35.0164 20.845 35.056 20.5078 35.056C20.1701 35.056 19.8145 35.0164 19.4408 34.9373C19.0667 34.8581 18.7073 34.713 18.3625 34.5021Z" fill="black"/>
</svg>
