<svg width="42" height="35" viewBox="0 0 42 35" fill="none" xmlns="http://www.w3.org/2000/svg">
<path d="M39.3264 25.9665V12.8048L21.8304 22.325C21.1789 22.6813 20.4683 22.8526 19.6988 22.8392C18.9297 22.8261 18.2153 22.6415 17.5554 22.2852L1.1875 13.2602C0.857771 13.0623 0.577521 12.7975 0.34675 12.4658C0.115583 12.1341 0 11.7846 0 11.4172C0 11.0511 0.11677 10.7037 0.350312 10.3752C0.583854 10.0463 0.862917 9.76759 1.1875 9.53919L17.553 0.545656C17.8934 0.370302 18.2485 0.235521 18.6182 0.141313C18.9879 0.0471045 19.3487 0 19.7006 0C20.0525 0 20.4131 0.0494792 20.7824 0.148438C21.1514 0.247396 21.5007 0.389106 21.8304 0.573565L40.6523 10.7665C40.9594 10.9454 41.2243 11.209 41.4467 11.5573C41.6692 11.9053 41.7804 12.275 41.7804 12.6665V25.9665C41.7804 26.314 41.6587 26.6087 41.4152 26.8506C41.1718 27.0924 40.8838 27.2133 40.5513 27.2133C40.2192 27.2133 39.9321 27.0924 39.6898 26.8506C39.4476 26.6087 39.3264 26.314 39.3264 25.9665ZM17.5554 34.2594L7.06562 28.5196C6.37964 28.1107 5.83874 27.5747 5.44291 26.9117C5.04707 26.2487 4.84916 25.5115 4.84916 24.7V17.575L17.5554 24.5017C18.1923 24.8845 18.8977 25.0758 19.6715 25.0758C20.4458 25.0758 21.1654 24.8845 21.8304 24.5017L34.5367 17.575V24.7107C34.5367 25.5348 34.3387 26.2734 33.9429 26.9266C33.5471 27.5797 33.0062 28.1107 32.3202 28.5196L21.8304 34.2594C21.4959 34.4704 21.1417 34.6154 20.7676 34.6946C20.3935 34.7738 20.0379 34.8133 19.7006 34.8133C19.363 34.8133 19.0073 34.7738 18.6337 34.6946C18.2596 34.6154 17.9002 34.4704 17.5554 34.2594Z" fill="#83C3DE"/>
</svg>
