<svg width="49" height="33" viewBox="0 0 49 33" fill="none" xmlns="http://www.w3.org/2000/svg">
<path d="M1.65791 32.0665C1.3262 32.0665 1.03922 31.9455 0.796969 31.7037C0.554719 31.4614 0.433594 31.1667 0.433594 30.8196V2.08209C0.433594 1.7868 0.557885 1.5117 0.806469 1.25678C1.05545 1.00226 1.34579 0.875 1.6775 0.875C2.00921 0.875 2.29381 1.00226 2.53131 1.25678C2.76881 1.5117 2.88756 1.7868 2.88756 2.08209V22.2898H23.8273V8.2375C23.8273 7.55073 24.0646 6.97004 24.5393 6.49544C25.0139 6.02083 25.5945 5.78353 26.2813 5.78353H41.5603C43.5169 5.78353 45.1738 6.46199 46.5312 7.81891C47.8881 9.17622 48.5665 10.8332 48.5665 12.7898V30.8196C48.5665 31.1667 48.4446 31.4614 48.2008 31.7037C47.957 31.9455 47.6692 32.0665 47.3375 32.0665C47.0058 32.0665 46.7186 31.9455 46.4759 31.7037C46.2337 31.4614 46.1126 31.1667 46.1126 30.8196V24.7438H2.88756V30.8196C2.88756 31.1667 2.76565 31.4614 2.52181 31.7037C2.27758 31.9455 1.98961 32.0665 1.65791 32.0665ZM12.4921 17.3415C11.1462 17.3415 9.99752 16.8683 9.04594 15.9218C8.09396 14.975 7.61797 13.8095 7.61797 12.4252C7.61797 11.0715 8.09614 9.92296 9.05247 8.97969C10.0092 8.03642 11.1605 7.56478 12.5063 7.56478C13.8521 7.56478 15.01 8.03701 15.9798 8.98147C16.9495 9.92632 17.4344 11.0792 17.4344 12.4401C17.4344 13.812 16.9472 14.972 15.9726 15.92C14.9981 16.8677 13.8379 17.3415 12.4921 17.3415Z" fill="black"/>
</svg>
