<svg width="57" height="57" viewBox="0 0 57 57" fill="none" xmlns="http://www.w3.org/2000/svg">
<path d="M17.4562 21.9289V6.86784C17.4562 6.54643 17.5805 6.26479 17.8291 6.02294C18.0781 5.78108 18.3682 5.66016 18.6995 5.66016C19.0055 5.66016 19.2838 5.78108 19.5344 6.02294C19.7849 6.26479 19.9102 6.54643 19.9102 6.86784V21.9289H24.225V6.86784C24.225 6.54643 24.3495 6.26479 24.5985 6.02294C24.847 5.78108 25.1372 5.66016 25.4689 5.66016C25.8006 5.66016 26.0852 5.78108 26.3227 6.02294C26.5602 6.26479 26.679 6.54643 26.679 6.86784V21.9069C26.679 24.0064 26.0258 25.7918 24.7196 27.2632C23.4133 28.7341 21.8102 29.595 19.9102 29.846V50.4093C19.9102 50.7565 19.782 51.051 19.5255 51.2928C19.2686 51.5351 18.9806 51.6562 18.6615 51.6562C18.3429 51.6562 18.0623 51.5351 17.8196 51.2928C17.5774 51.051 17.4562 50.7565 17.4562 50.4093V29.846C15.5297 29.595 13.9133 28.7341 12.6071 27.2632C11.3008 25.7918 10.6477 24.0064 10.6477 21.9069V6.86784C10.6477 6.54643 10.7722 6.26479 11.0212 6.02294C11.2702 5.78108 11.5605 5.66016 11.8922 5.66016C12.2239 5.66016 12.5085 5.78108 12.746 6.02294C12.9835 6.26479 13.1023 6.54643 13.1023 6.86784V21.9289H17.4562ZM40.0187 32.4187H36.2075C35.5757 32.4187 35.0502 32.2065 34.631 31.7822C34.2119 31.3582 34.0023 30.8381 34.0023 30.2218V16.3085C34.0023 12.7669 34.6817 10.1069 36.0406 8.32847C37.3995 6.54959 38.8109 5.66016 40.2746 5.66016C40.9768 5.66016 41.5187 5.85985 41.9003 6.25925C42.2819 6.65825 42.4727 7.23043 42.4727 7.97578V50.4093C42.4727 50.7565 42.3508 51.051 42.107 51.2928C41.8631 51.5351 41.5753 51.6562 41.2436 51.6562C40.9119 51.6562 40.6248 51.5351 40.3821 51.2928C40.1399 51.051 40.0187 50.7565 40.0187 50.4093V32.4187Z" fill="black"/>
</svg>
