<svg width="57" height="57" viewBox="0 0 57 57" fill="none" xmlns="http://www.w3.org/2000/svg">
<path d="M12.0336 36.0212V14.1765C12.0336 12.7741 12.4136 11.6262 13.1736 10.7328C13.934 9.83939 15.0259 9.14015 16.4493 8.63507C17.8727 8.12998 19.607 7.77848 21.6523 7.58057C23.6972 7.38265 25.9798 7.28369 28.5 7.28369C30.8485 7.28369 33.0205 7.3777 35.0159 7.56572C37.0109 7.75374 38.7494 8.09357 40.2314 8.58519C41.7138 9.07721 42.8735 9.78397 43.7107 10.7055C44.5479 11.627 44.9665 12.7822 44.9665 14.1712V36.0212C44.9665 37.8765 44.3088 39.4618 42.9935 40.7771C41.6785 42.0925 40.0932 42.7502 38.2375 42.7502L41.5625 46.0752C41.8661 46.3788 41.9386 46.7317 41.7799 47.1338C41.6211 47.5364 41.3149 47.7377 40.8613 47.7377C40.7351 47.7377 40.5989 47.7046 40.4528 47.6385C40.3064 47.5728 40.2088 47.5012 40.1601 47.4236L35.4867 42.7502H21.5532L16.8744 47.4289C16.7972 47.5029 16.6838 47.5728 16.5342 47.6385C16.385 47.7046 16.2496 47.7377 16.1281 47.7377C15.6349 47.7377 15.3206 47.5364 15.1852 47.1338C15.0498 46.7317 15.1339 46.3788 15.4375 46.0752L18.7625 42.7502C16.9069 42.7502 15.3216 42.0925 14.0066 40.7771C12.6912 39.4618 12.0336 37.8765 12.0336 36.0212ZM13.854 26.7587H27.6688V15.1212H13.854V26.7587ZM29.4898 26.7587H43.1461V15.1212H29.4898V26.7587ZM20.0634 37.3274C20.7083 37.3274 21.2925 37.0719 21.8162 36.5609C22.3403 36.0499 22.6023 35.4652 22.6023 34.807C22.6023 34.1483 22.3403 33.5526 21.8162 33.0198C21.2925 32.4874 20.7055 32.2212 20.0551 32.2212C19.4044 32.2212 18.8152 32.4856 18.2875 33.0144C17.7599 33.5437 17.4961 34.1374 17.4961 34.7957C17.4961 35.4544 17.7599 36.041 18.2875 36.5556C18.8152 37.0702 19.4072 37.3274 20.0634 37.3274ZM36.9651 37.3274C37.6103 37.3274 38.1948 37.0719 38.7185 36.5609C39.2422 36.0499 39.504 35.4652 39.504 34.807C39.504 34.1483 39.2422 33.5526 38.7185 33.0198C38.1948 32.4874 37.6076 32.2212 36.9568 32.2212C36.3065 32.2212 35.7175 32.4856 35.1898 33.0144C34.6618 33.5437 34.3978 34.1374 34.3978 34.7957C34.3978 35.4544 34.6616 36.041 35.1892 36.5556C35.7169 37.0702 36.3088 37.3274 36.9651 37.3274Z" fill="black"/>
</svg>
